# xmcd
#
# Track frame offsets: 
#        150
#        16388
#        33935
#        50943
#        68213
#        86020
#        98963
#        117998
#        130795
#        147363
#        165115
#        181098
#
# Disc length: 2677 seconds
#
# Revision: 6
# Processed by: cddbd v1.5.2PL0 Copyright (c) Steve Scherf et al.
# Submitted via: ExactAudioCopy v1.3
#
DISCID=9d0a730c
DTITLE=Kenny Rogers - 25 Greatest Hits Disc 1
DYEAR=1987
DGENRE=Country
TTITLE0=Lucille
TTITLE1=Lady
TTITLE2=Love Lifted Me
TTITLE3=We've Got Tonight
TTITLE4=Scarlet Fever
TTITLE5=Love Or Something Like It
TTITLE6=She Believes In Me
TTITLE7=Ruby Don't Take Your Love To Town
TTITLE8=Don't Fall In Love With A Dreamer
TTITLE9=You Were A Good Friend
TTITLE10=The Gambler
TTITLE11=Through The Years
EXTD=
EXTT0=
EXTT1=
EXTT2=
EXTT3=
EXTT4=
EXTT5=
EXTT6=
EXTT7=
EXTT8=
EXTT9=
EXTT10=
EXTT11=
PLAYORDER=
